<svg data-v-0dd9719b="" version="1.0" xmlns="http://www.w3.org/2000/svg" xmlns:xlink="http://www.w3.org/1999/xlink" width="100%" height="100%" viewBox="0 0 340.000000 250.000000" preserveAspectRatio="xMidYMid meet" color-interpolation-filters="sRGB" style="margin: auto;"> <rect data-v-0dd9719b="" x="0" y="0" width="100%" height="100%" fill="#fff" fill-opacity="1" class="background"></rect> <rect data-v-0dd9719b="" x="0" y="0" width="100%" height="100%" fill="url(#watermark)" fill-opacity="1" class="watermarklayer"></rect> <g data-v-0dd9719b="" fill="#960509" class="icon-text-wrapper icon-svg-group iconsvg" transform="translate(48.61000061035156,94.81982421875)"><g class="iconsvg-imagesvg" transform="translate(0,0)"><g><rect fill="#960509" fill-opacity="0" stroke-width="2" x="0" y="0" width="60" height="60.36035129724455" class="image-rect"></rect> <svg x="0" y="0" width="60" height="60.36035129724455" filtersec="colorsb2880406539" class="image-svg-svg primary" style="overflow: visible;"><svg xmlns="http://www.w3.org/2000/svg" viewBox="0 -0.005823501851409674 178.59243774414062 179.66583251953125"><g><g><path d="M152.74 55.61q-4.91-.48-9.83-.93 8.91 15.41 16.33 31.6c1.23-1.23 2.45-2.46 3.65-3.71A103.56 103.56 0 0 0 174.45 69a36.34 36.34 0 0 0 3.46-6.05 11.8 11.8 0 0 0 .68-3c0-.75.07-.65-.54-1.18l-.14-.08q-.41-.24-.83-.45s-1.62-.51-2-.58c-6.62-1.43-15.08-1.35-22.34-2.05z" fill="#960509"></path><path d="M58.61 48.53c1-.23 2-.47 3.08-.68a241.14 241.14 0 0 1 63.58-4.09 244.28 244.28 0 0 0-17.73-24.55c-4.68-5.65-9.77-11.92-15.91-16.06A17.15 17.15 0 0 0 85.48.2a9.82 9.82 0 0 0-4 0c-3 .85-6 3.45-8.26 6.81a67.63 67.63 0 0 0-7.66 15.84 201.36 201.36 0 0 0-6.95 25.68z" fill="#ed1b27"></path><path d="M0 82a8.44 8.44 0 0 0 1.4 2.51C6 90.53 13.67 94.73 20.08 98.4c6.75 3.87 13.7 7.39 20.79 10.6.77-8.67 1.65-17.33 2.73-26 .89-7.16 1.86-14.33 3-21.48A214.26 214.26 0 0 0 16.78 73c-4 1.9-8 3.87-11.93 6-1.54.82-3.7 1.57-4.85 2.89.2-.15.08.29 0 .11z" fill="#ed1b23"></path><path d="M137.86 154.56c5.6 1.68 12.28 3.57 18.12 2 12.27-3.3 10.23-21.11 7.9-30.57a172.65 172.65 0 0 0-7.81-23.65C141 116.26 125 129.25 108.83 142c1.75.89 3.51 1.78 5.27 2.65 7.7 3.78 15.54 7.43 23.76 9.91zM141.8 72.39c-3.33-6.27-6.79-12.52-10.43-18.68a274.21 274.21 0 0 0-39.08-.54 206.3 206.3 0 0 0-35.63 5.63q-1 5.76-1.84 11.53c-2.09 14.14-3.63 28.34-4.82 42.58 4.92 2 9.87 3.8 14.68 6.07C76.57 124.6 88 131 99.65 137.22c18-14.07 36-28.34 52.48-44-3.21-7.1-6.72-14.04-10.33-20.83z" fill="#c2141a"></path><path d="M86.08 147.86l5.43-4.27c-9.88-5.31-19.71-10.71-29.84-15.59-4.11-2-8.26-3.78-12.43-5.56-1.08 14.64-1.86 29.3-2.54 44-.17 4.19-.62 9 .5 13.22.34-.36.67-.73 1-1.12-1.31 1.67.32-.42.8-.83q1.54-1.33 3.1-2.64c11.1-9.33 22.58-18.23 33.98-27.21z" fill="#a30b10"></path></g></g></svg></svg> <!----></g></g> <g transform="translate(67,1.9789237976074219)"><g data-gra="path-name" fill-rule="" class="tp-name iconsvg-namesvg" transform="translate(0,0)"><g transform="scale(1)"><g><path d="M9.89-29.22L34.98-29.22 34.98-33.44 9.89-33.44 9.89-29.22ZM9.89-22.28L34.98-22.28 34.98-26.59 9.89-26.59 9.89-22.28ZM6.5-36.17L38.5-36.17 38.5-19.51 6.5-19.51 6.5-36.17ZM21.75-9.89L10.42-9.89 10.42-1.58Q14.85-2.15 22.63-3.21L22.63-3.21 22.72-0.04Q15.12 1.05 3.03 2.68L3.03 2.68 2.59-0.62 7.08-1.19 7.08-17.93 10.42-17.93 10.42-12.92 21.75-12.92 21.75-9.89ZM30.1-0.44L30.1-0.44 37.57-0.44Q38.98-0.44 39.42-1.45L39.42-1.45Q39.81-2.55 39.99-6.15L39.99-6.15Q41.09-5.41 43.11-4.88L43.11-4.88Q42.71 0.22 41.31 1.63L41.31 1.63Q40.17 2.68 37.79 2.68L37.79 2.68 29.84 2.68Q25.97 2.68 24.92 1.23L24.92 1.23Q24.17 0.13 24.17-2.2L24.17-2.2 24.17-17.93 27.55-17.93 27.55-10.46Q35.29-13.4 38.72-15.86L38.72-15.86 41.35-13.49Q36.61-10.5 27.55-7.51L27.55-7.51 27.55-2.24Q27.55-0.88 28.34-0.62L28.34-0.62Q28.92-0.44 30.1-0.44ZM60.29-23.33L60.29-31.86 51.9-31.86 51.9-23.33 60.29-23.33ZM51.9-20.3L51.9-11.34 60.29-11.34 60.29-20.3 51.9-20.3ZM63.41-34.89L63.41-8.22 51.9-8.22 51.9-4.09 48.74-4.09 48.74-34.89 63.41-34.89ZM70.53-13.93L70.53-13.93 83.32-13.93 83.32-21.84 70.8-21.84 70.8-19.82Q70.8-16.35 70.53-13.93ZM83.32-24.87L83.32-32.56 70.8-32.56 70.8-24.87 83.32-24.87ZM67.54-35.73L86.57-35.73 86.57-1.01Q86.57 1.63 85.25 2.46L85.25 2.46Q84.95 2.59 84.68 2.72L84.68 2.72Q82.79 3.34 76.95 3.34L76.95 3.34Q76.55 1.54 75.67 0.09L75.67 0.09Q77.3 0.13 82.18 0.13L82.18 0.13Q83.28-0.09 83.32-1.01L83.32-1.01 83.32-10.9 70.05-10.9Q68.2-1.27 61.7 3.74L61.7 3.74Q60.73 2.5 59.24 1.45L59.24 1.45Q66.36-4 67.32-14.68L67.32-14.68Q67.54-16.92 67.54-19.82L67.54-19.82 67.54-35.73ZM105.03-32.43L105.03-32.43 105.03-24.17 113.64-24.17 113.64-21.09 105.03-21.09 105.03-17.84Q108.9-14.81 113.51-10.68L113.51-10.68 111.53-7.91Q108.63-11.07 105.03-14.41L105.03-14.41 105.03 3.34 101.78 3.34 101.78-16.08Q97.78-7.34 93.25-2.77L93.25-2.77Q92.55-4.26 91.41-5.89L91.41-5.89Q95.71-9.98 99.36-17.23L99.36-17.23Q100.37-19.2 101.12-21.09L101.12-21.09 92.37-21.09 92.37-24.17 101.78-24.17 101.78-31.77Q97.08-30.94 93.12-30.37L93.12-30.37Q92.9-31.51 92.07-33.05L92.07-33.05Q105.47-35.11 110.65-37.4L110.65-37.4 113.12-34.85Q109.34-33.35 105.03-32.43ZM116.63-32.3L119.88-32.3 119.88-7.69 116.63-7.69 116.63-32.3ZM127.62-1.01L127.62-36.78 130.96-36.78 130.96-1.05Q130.96 1.93 129.2 2.77L129.2 2.77Q129.07 2.86 128.94 2.9L128.94 2.9Q127.09 3.47 120.81 3.47L120.81 3.47Q120.41 1.58 119.62 0.09L119.62 0.09Q124.58 0.22 126.43 0.13L126.43 0.13Q127.57 0.04 127.62-1.01L127.62-1.01ZM177.71-10.9L177.71-7.95 161.02-7.95Q164.88-1.49 175.78 0.13L175.78 0.13Q177.06 0.31 178.37 0.44L178.37 0.44Q177.23 1.49 176.31 3.47L176.31 3.47Q165.19 2.07 160.22-3.74L160.22-3.74Q158.64-5.63 157.54-7.95L157.54-7.95 157.32-7.95Q155.21-2.46 149.46 0.35L149.46 0.35Q145.28 2.33 138.56 3.43L138.56 3.43Q138.08 1.89 136.93 0.57L136.93 0.57Q136.89 0.53 136.85 0.48L136.85 0.48Q147.74-1.14 151.7-5.27L151.7-5.27Q152.84-6.5 153.59-7.95L153.59-7.95 137.42-7.95 137.42-10.9 154.73-10.9Q155.17-12.7 155.43-15.03L155.43-15.03 137.72-15.03 137.72-18.11 155.74-18.11 155.74-21.84 141.77-21.84 141.77-24.74 155.74-24.74 155.74-28.39 139.53-28.39 139.53-31.42 148.62-31.42Q147.48-34.06 145.24-36.52L145.24-36.52 148.14-37.71Q150.78-35.07 151.96-32.3L151.96-32.3Q152.01-32.17 152.05-32.08L152.05-32.08 150.6-31.42 164-31.42 162.38-31.99Q164.22-34.23 166.25-37.71L166.25-37.71 169.63-36.69Q167.78-33.88 165.59-31.42L165.59-31.42 175.52-31.42 175.52-28.39 159.08-28.39 159.08-24.74 173.54-24.74 173.54-21.84 159.08-21.84 159.08-18.11 177.28-18.11 177.28-15.03 158.91-15.03Q158.73-13.18 158.2-10.9L158.2-10.9 177.71-10.9Z" transform="translate(-2.5900001525878906, 37.709999084472656)"></path></g> <!----> <!----> <!----> <!----> <!----> <!----> <!----></g></g> <g data-gra="path-slogan" fill-rule="" class="tp-slogan iconsvg-slogansvg" fill="#960509" transform="translate(5,47.45000076293945)"><rect x="0" height="1" y="3.9750003814697266" width="35.37999725341797"></rect> <rect height="1" y="3.9750003814697266" width="35.37999725341797" x="130.4000015258789"></rect> <g transform="translate(38.37999725341797,0)"><g transform="scale(1)"><path d="M3.42-4.31L2.06-3.05L2.06 0L0.89 0L0.89-8.58L2.06-8.58L2.06-4.41L6.23-8.58L7.88-8.58L4.27-5.11L7.97 0L6.42 0L3.42-4.31ZM14.53-3.19L14.53-8.58L15.70-8.58L15.70-3.05Q15.56 0.05 12.19 0.14L12.19 0.14Q9.05 0.05 8.91-2.86L8.91-2.86L8.91-8.58L10.08-8.58L10.08-3.19Q10.13-0.84 12.23-0.80L12.23-0.80Q14.53-0.84 14.53-3.19L14.53-3.19ZM18.89-8.58L23.20-1.64L23.20-8.58L24.33-8.58L24.33 0L23.02 0L18.66-6.94L18.61-6.94L18.61 0L17.48 0L17.48-8.58L18.89-8.58ZM34.36-8.58L34.36 0L33.23 0L33.23-5.06Q33.23-5.77 33.23-7.22L33.23-7.22L30.80 0L29.63 0L27.23-7.22L27.19-7.22Q27.19-6.70 27.23-5.67L27.23-5.67Q27.23-5.16 27.23-5.06L27.23-5.06L27.23 0L26.06 0L26.06-8.58L27.75-8.58L30.23-1.31L32.67-8.58L34.36-8.58ZM36.23-8.58L37.41-8.58L37.41 0L36.23 0L36.23-8.58ZM40.78-8.58L45.09-1.64L45.09-8.58L46.22-8.58L46.22 0L44.91 0L40.55-6.94L40.50-6.94L40.50 0L39.38 0L39.38-8.58L40.78-8.58ZM54.42-3.61L51.80-3.61L51.80-4.59L55.55-4.59L55.55 0L54.80 0L54.52-1.08Q53.53 0.09 51.70 0.14L51.70 0.14Q49.97 0.14 49.03-0.75L49.03-0.75Q47.63-2.06 47.67-4.36L47.67-4.36Q48-8.63 51.75-8.81L51.75-8.81Q54.94-8.63 55.41-6L55.41-6L54.28-6Q53.81-7.78 51.70-7.83L51.70-7.83Q49.03-7.64 48.89-4.31L48.89-4.31Q48.89-0.75 51.75-0.75L51.75-0.75Q52.78-0.75 53.53-1.31L53.53-1.31Q54.47-2.06 54.42-3.61L54.42-3.61ZM60.66-8.58L61.83-8.58L61.83-1.03L66.19-1.03L66.19 0L60.66 0L60.66-8.58ZM67.50-8.58L68.67-8.58L68.67 0L67.50 0L67.50-8.58ZM78.89-8.58L78.89 0L77.77 0L77.77-5.06Q77.77-5.77 77.77-7.22L77.77-7.22L75.33 0L74.16 0L71.77-7.22L71.72-7.22Q71.72-6.70 71.77-5.67L71.77-5.67Q71.77-5.16 71.77-5.06L71.77-5.06L71.77 0L70.59 0L70.59-8.58L72.28-8.58L74.77-1.31L77.20-8.58L78.89-8.58ZM81.89-1.03L87.05-1.03L87.05 0L80.72 0L80.72-8.58L86.95-8.58L86.95-7.59L81.89-7.59L81.89-4.92L86.58-4.92L86.58-3.89L81.89-3.89L81.89-1.03ZM88.73-8.58L89.91-8.58L89.91 0L88.73 0L88.73-8.58Z" transform="translate(-0.890625, 8.8125)"></path></g></g></g></g></g><defs v-gra="od"></defs></svg>